<svg width="36" height="36" viewBox="0 0 36 36" fill="none" xmlns="http://www.w3.org/2000/svg">
<g clip-path="url(#clip0_302_8)">
<path d="M7.58 24.198C6.632 24.198 5.774 23.946 5.006 23.442C4.25 22.938 3.644 22.206 3.188 21.246C2.744 20.274 2.522 19.092 2.522 17.7C2.522 16.308 2.744 15.132 3.188 14.172C3.644 13.2 4.25 12.462 5.006 11.958C5.774 11.454 6.632 11.202 7.58 11.202C8.336 11.202 9.038 11.37 9.686 11.706C10.334 12.042 10.886 12.534 11.342 13.182C11.81 13.818 12.14 14.598 12.332 15.522L9.614 16.224C9.506 15.468 9.266 14.904 8.894 14.532C8.534 14.148 8.126 13.956 7.67 13.956C7.286 13.956 6.938 14.082 6.626 14.334C6.326 14.586 6.086 14.988 5.906 15.54C5.726 16.08 5.636 16.8 5.636 17.7C5.636 18.588 5.726 19.308 5.906 19.86C6.086 20.412 6.326 20.814 6.626 21.066C6.938 21.318 7.286 21.444 7.67 21.444C8.126 21.444 8.534 21.258 8.894 20.886C9.266 20.502 9.506 19.932 9.614 19.176L12.332 19.878C12.14 20.79 11.81 21.57 11.342 22.218C10.886 22.866 10.334 23.358 9.686 23.694C9.038 24.03 8.336 24.198 7.58 24.198ZM13.855 24V11.148L16.771 10.734V18.402L20.011 14.712H23.233L19.453 18.87L23.503 24H19.867L16.771 19.896V24H13.855ZM24.6299 24V21.75H26.6459V16.962H24.6299V14.712H29.5619V17.052C29.8979 16.2 30.3179 15.576 30.8219 15.18C31.3379 14.772 31.9199 14.568 32.5679 14.568C32.8439 14.568 33.0599 14.586 33.2159 14.622C33.3839 14.658 33.5819 14.73 33.8099 14.838V17.448C33.5819 17.34 33.3059 17.262 32.9819 17.214C32.6699 17.154 32.3579 17.124 32.0459 17.124C31.5419 17.124 31.0679 17.238 30.6239 17.466C30.1799 17.682 29.8259 17.982 29.5619 18.366V21.75H31.6859V24H24.6299Z" fill="black"/>
</g>
<defs>
<clipPath id="clip0_302_8">
<rect width="36" height="36" fill="white"/>
</clipPath>
</defs>
</svg>
